<svg width="16" height="19" viewBox="0 0 16 19" fill="none" xmlns="http://www.w3.org/2000/svg">
<path fill-rule="evenodd" clip-rule="evenodd" d="M6.80575 15.7212V11.0816C6.89402 11.0347 7.00378 10.9936 7.09722 10.9527C7.27532 10.8745 7.89426 10.5895 8.01489 10.6009C8.15545 10.6141 8.75446 10.8913 8.91677 10.9591L9.14198 11.0572C9.17873 11.0748 9.19841 11.0663 9.19841 11.1139V15.6725C9.19841 15.7219 9.12282 15.7447 9.08011 15.7641C8.91469 15.8389 8.12853 16.1848 8.02136 16.2083C7.93102 16.2283 7.53833 16.031 7.41795 15.9818C7.31234 15.9386 7.21527 15.8956 7.11327 15.8501C7.03251 15.8138 6.89324 15.7414 6.80575 15.7209V15.7212ZM10.9196 6.75858L13.7329 5.54969C13.8181 5.51086 13.8802 5.46064 13.919 5.39852C13.9578 5.33665 13.977 5.26676 13.977 5.18936C13.977 5.11972 13.9597 5.05371 13.9247 4.99184C13.8898 4.92998 13.8258 4.8795 13.7329 4.84067L10.9196 3.64343V6.75884V6.75858ZM10.9196 14.956L13.7329 13.7471C13.8181 13.7083 13.8802 13.658 13.919 13.5959C13.9578 13.534 13.977 13.4641 13.977 13.3867C13.977 13.3171 13.9597 13.2511 13.9247 13.1892C13.8898 13.1274 13.8258 13.0769 13.7329 13.0381L10.9196 11.8408V14.9562V14.956ZM5.05998 11.8576V14.9454C4.87179 14.8457 3.644 14.3306 3.46875 14.2573L2.2697 13.7427C2.13872 13.6894 2.03958 13.5755 2.02767 13.4043C2.01524 13.2283 2.10999 13.1217 2.23605 13.0593C2.6989 12.8302 3.71053 12.4341 4.25129 12.197C4.38383 12.139 4.50783 12.0883 4.64916 12.029C4.72165 11.9985 4.7874 11.9679 4.85237 11.941C4.91786 11.9138 4.99293 11.8734 5.06024 11.8579L5.05998 11.8576ZM8.00221 8.02648C7.84119 8.02648 6.98798 7.58383 6.806 7.54164V2.90205C6.93699 2.83267 7.89763 2.4172 7.98616 2.4172C8.12517 2.4172 8.72262 2.69832 8.91677 2.77987C8.97087 2.80265 9.00944 2.81921 9.0638 2.84303C9.11661 2.86633 9.19867 2.87875 9.19867 2.93441V7.49297C9.19867 7.54345 9.12386 7.56493 9.07881 7.58331C8.86422 7.67003 8.11196 8.02648 8.00247 8.02648H8.00221ZM5.05998 3.67786V6.74926C5.00847 6.74486 4.72087 6.61543 4.65615 6.58721L3.86585 6.24603C3.73409 6.19167 3.59171 6.12902 3.45892 6.07104L2.46256 5.64469C2.38956 5.61234 2.32847 5.59085 2.26038 5.5559C2.13173 5.48938 2.03077 5.38583 2.02663 5.21188C2.01887 4.88908 2.34529 4.82695 2.63936 4.70088C2.91272 4.58362 3.17727 4.4749 3.44364 4.35737L4.24896 4.0149C4.3626 3.96908 4.96886 3.69909 5.05972 3.67786H5.05998ZM0.000258862 5.10031C0.000258862 5.87172 0.155317 6.43345 0.682878 6.95557C1.09758 7.36587 1.68804 7.54604 2.19852 7.79998C2.59483 7.99723 3.01497 8.15203 3.41129 8.34929C3.94325 8.61384 4.49851 8.8287 5.03332 9.08756C5.15938 9.14865 5.31133 9.23899 5.44801 9.27083C5.40944 9.32338 4.78144 9.59726 4.64916 9.65214C3.63546 10.1098 2.6215 10.567 1.60753 11.0236C0.613503 11.4362 0.000258862 12.1584 0.000258862 13.2798C0.000258862 14.0639 0.170331 14.6233 0.618681 15.0701C1.06263 15.5125 1.50735 15.6394 2.03181 15.9039L2.69967 16.206C3.18142 16.4211 3.65591 16.6554 4.14335 16.864C4.18373 16.8811 4.20185 16.8938 4.24094 16.9119L5.49668 17.4827C5.56243 17.512 5.61964 17.5402 5.68565 17.5684L7.82178 18.536C7.88805 18.563 7.95639 18.5971 8.02266 18.586C8.08789 18.5749 8.1772 18.5363 8.23751 18.5109L8.61623 18.3401C8.99831 18.1501 9.39074 17.9805 9.78007 17.8066L10.5489 17.4599C10.6196 17.4307 10.6643 17.4061 10.7381 17.3745C10.7785 17.3574 10.7966 17.345 10.8357 17.3266L11.3263 17.1058C11.3923 17.075 11.4487 17.052 11.515 17.0196C11.5815 16.9875 11.6426 16.9637 11.7037 16.9334C11.8295 16.8708 11.9654 16.818 12.0912 16.7553L13.2486 16.2314C13.3832 16.1757 13.4976 16.111 13.6366 16.0535L14.414 15.6994C14.5475 15.6321 14.6539 15.5935 14.7818 15.5177C15.4031 15.1493 15.854 14.6458 15.9578 13.8809C16.1517 12.4528 15.665 11.5957 14.4033 11.0327L13.625 10.6796C13.4935 10.6262 13.3814 10.5649 13.246 10.5087L12.0754 9.98193C11.69 9.81004 11.3084 9.62004 10.918 9.45799C10.8543 9.43159 10.7902 9.40363 10.7278 9.37334C10.6874 9.35367 10.6729 9.34409 10.6291 9.32649C10.5675 9.3019 10.573 9.31665 10.5393 9.27083C10.6009 9.26566 10.6245 9.24443 10.6685 9.22217C10.7109 9.20068 10.7449 9.19085 10.7927 9.16858C10.8774 9.12924 10.9506 9.0961 11.035 9.0552L11.8921 8.66743C12.2333 8.50848 12.6806 8.32314 12.9915 8.16627L14.4569 7.49789C14.8085 7.32057 15.0326 7.2266 15.3205 6.939C15.4455 6.81397 15.5517 6.70292 15.6472 6.55434C15.7367 6.41481 15.8185 6.23852 15.8724 6.06819C15.9811 5.72365 16.0342 5.22378 15.9762 4.80417C15.8312 3.755 15.3039 3.23572 14.3824 2.84173C14.3001 2.80653 14.2224 2.76822 14.1391 2.72939C12.2615 1.87877 10.3814 1.0341 8.50285 0.186068C8.46065 0.165617 8.42596 0.154228 8.37885 0.132224C7.97088 -0.057004 7.96441 -0.0388836 7.55463 0.159405C6.09103 0.808113 4.63674 1.47675 3.17753 2.1353C2.87285 2.26111 1.4051 2.91965 1.21536 3.03433L0.680549 3.42081C0.206313 3.87641 0 4.4503 0 5.10031H0.000258862Z" fill="#E85D00"/>
</svg>
