<svg width="44" height="37" viewBox="0 0 44 37" fill="none" xmlns="http://www.w3.org/2000/svg">
<path d="M0.775375 20.2411L16.5254 35.9911C17.0185 36.4843 17.6874 36.7613 18.3848 36.7613C19.0822 36.7613 19.751 36.4843 20.2441 35.9911C20.7373 35.498 21.0143 34.8291 21.0143 34.1317C21.0143 33.4343 20.7373 32.7655 20.2441 32.2724L8.97631 21.0089H41.1326C41.8288 21.0089 42.4964 20.7324 42.9887 20.2401C43.481 19.7478 43.7576 19.0801 43.7576 18.3839C43.7576 17.6877 43.481 17.0201 42.9887 16.5278C42.4964 16.0355 41.8288 15.7589 41.1326 15.7589H8.97631L20.2398 4.48893C20.7329 3.99579 21.0099 3.32695 21.0099 2.62955C21.0099 1.93215 20.7329 1.26331 20.2398 0.770178C19.7466 0.277041 19.0778 7.34831e-09 18.3804 0C17.683 -7.34831e-09 17.0141 0.277041 16.521 0.770178L0.771004 16.5202C0.526241 16.7644 0.33213 17.0545 0.199821 17.374C0.0675163 17.6934 -0.000385284 18.0358 2.28882e-05 18.3816C0.000427246 18.7273 0.0691338 19.0696 0.202194 19.3887C0.335251 19.7078 0.530041 19.9975 0.775375 20.2411Z" fill="#3A3A3A"/>
</svg>
