<svg width="44" height="37" viewBox="0 0 44 37" fill="none" xmlns="http://www.w3.org/2000/svg">
<path d="M42.9822 20.2411L27.2322 35.9911C26.7391 36.4843 26.0702 36.7613 25.3728 36.7613C24.6754 36.7613 24.0066 36.4843 23.5134 35.9911C23.0203 35.498 22.7433 34.8291 22.7433 34.1317C22.7433 33.4343 23.0203 32.7655 23.5134 32.2724L34.7813 21.0089H2.625C1.92881 21.0089 1.26113 20.7324 0.768845 20.2401C0.276562 19.7478 0 19.0801 0 18.3839C0 17.6877 0.276562 17.0201 0.768845 16.5278C1.26113 16.0355 1.92881 15.7589 2.625 15.7589H34.7813L23.5178 4.48893C23.0247 3.99579 22.7476 3.32695 22.7476 2.62955C22.7476 1.93215 23.0247 1.26331 23.5178 0.770178C24.011 0.277041 24.6798 7.34831e-09 25.3772 0C26.0746 -7.34831e-09 26.7434 0.277041 27.2366 0.770178L42.9866 16.5202C43.2313 16.7644 43.4254 17.0545 43.5577 17.374C43.6901 17.6934 43.758 18.0358 43.7575 18.3816C43.7571 18.7273 43.6884 19.0696 43.5554 19.3887C43.4223 19.7078 43.2275 19.9975 42.9822 20.2411Z" fill="#3A3A3A"/>
</svg>
