<svg width="21" height="18" viewBox="0 0 21 18" fill="none" xmlns="http://www.w3.org/2000/svg">
<path d="M12.75 12H8.25V1.5C8.25 1.10218 8.40804 0.720644 8.68934 0.43934C8.97064 0.158035 9.35218 0 9.75 0H11.25C11.6478 0 12.0294 0.158035 12.3107 0.43934C12.592 0.720644 12.75 1.10218 12.75 1.5V12ZM19.5 13.5H1.5C1.10218 13.5 0.720644 13.658 0.43934 13.9393C0.158035 14.2206 0 14.6022 0 15V15.75C0 16.1478 0.158035 16.5294 0.43934 16.8107C0.720644 17.092 1.10218 17.25 1.5 17.25H19.5C19.8978 17.25 20.2794 17.092 20.5607 16.8107C20.842 16.5294 21 16.1478 21 15.75V15C21 14.6022 20.842 14.2206 20.5607 13.9393C20.2794 13.658 19.8978 13.5 19.5 13.5ZM19.5 11.625V10.5C19.4954 8.88278 19.0572 7.2964 18.2309 5.90619C17.4046 4.51598 16.2206 3.37285 14.8022 2.59594C14.745 2.56529 14.6809 2.54999 14.616 2.55154C14.5512 2.55309 14.4879 2.57144 14.4322 2.60478C14.3766 2.63812 14.3306 2.68533 14.2986 2.74178C14.2667 2.79824 14.2499 2.86201 14.25 2.92688V12H19.125C19.2245 12 19.3198 11.9605 19.3902 11.8902C19.4605 11.8198 19.5 11.7245 19.5 11.625ZM1.875 12H6.75V2.92688C6.75008 2.86201 6.73333 2.79824 6.70139 2.74178C6.66945 2.68533 6.62341 2.63812 6.56778 2.60478C6.51214 2.57144 6.44881 2.55309 6.38396 2.55154C6.31912 2.54999 6.25498 2.56529 6.19781 2.59594C4.77943 3.37285 3.59539 4.51598 2.76911 5.90619C1.94284 7.2964 1.50457 8.88278 1.5 10.5V11.625C1.5 11.7245 1.53951 11.8198 1.60984 11.8902C1.68016 11.9605 1.77554 12 1.875 12Z" fill="#2F9C96"/>
</svg>
